<svg width="35" height="51" viewBox="0 0 35 51" fill="none" xmlns="http://www.w3.org/2000/svg">
<path d="M17.4938 3.80823L16.2851 3.13138L15.0754 3.80823L13.8662 3.13138L12.6576 3.80823L11.4489 3.13138L10.2403 3.80823L8.7562 2.97614L9.30829 1.99162L10.2403 2.5138L11.4489 1.83694L12.6576 2.5138L13.8662 1.83694L15.0754 2.5138L16.2851 1.83694L17.4938 2.5138L18.7018 1.83694L19.911 2.51436L21.1208 1.83751L22.3317 2.51436L23.542 1.83751L24.7551 2.51436L25.6928 1.99106L26.2426 2.9767L24.7551 3.80767L23.542 3.13082L22.3317 3.80767L21.1208 3.13082L19.911 3.80767L18.7018 3.13138L17.4938 3.80823Z" fill="#B8F1DD"/>
<path d="M8.78781 6.69853L7.06265 5.73095L7.61475 4.74643L8.78781 5.40409L10.2386 4.59175L11.6889 5.40409L13.1397 4.59175L14.5905 5.40409L16.0418 4.59175L17.4932 5.40409L18.9423 4.59175L20.3931 5.40409L21.8451 4.59232L23.2981 5.40466L24.7512 4.59232L26.206 5.40466L27.3864 4.74587L27.9362 5.73151L26.206 6.69796L24.7512 5.88563L23.2981 6.69796L21.8451 5.88563L20.3931 6.69853L18.9423 5.88619L17.4932 6.69853L16.0418 5.88619L14.5905 6.69853L13.1397 5.88619L11.6889 6.69853L10.2386 5.88619L8.78781 6.69853Z" fill="#B8F1DD"/>
<path d="M31.6129 22.0161H34.4033L30.774 16.9355H29.9194V14.1129H27.0968V8.46774H29.7353L25.1763 0H9.82371L5.26468 8.46774H7.90323V14.1129H5.08065V16.9355H4.2254L0.59613 22.0161H3.3871V33.871H2.25807V35H32.7419V33.871H31.6129V22.0161ZM28.7903 16.9355H27.6613V15.2419H28.7903V16.9355ZM25.4032 15.2419H26.5323V16.9355H25.4032V15.2419ZM10.4989 1.12903H24.5017L27.8459 7.33871H7.15468L10.4989 1.12903ZM9.59678 16.9355H8.46774V15.2419H9.59678V16.9355ZM6.20968 15.2419H7.33871V16.9355H6.20968V15.2419ZM4.51613 22.0161H6.7742V20.8871H2.7904L4.80629 18.0645H10.1613V17.5H10.7258V15.2419H14.1129V14.1129H9.03226V8.46774H25.9677V14.1129H20.8871V15.2419H24.2742V17.5H24.8387V18.0645H30.1931L32.209 20.8871H28.2258V22.0161H30.4839V33.871H29.3548V32.1774H28.2258V33.871H23.7097V32.1774H22.5806V33.871H20.8871V24.8387H14.1129V33.871H12.4194V32.1774H11.2903V33.871H6.7742V32.1774H5.64516V33.871H4.51613V22.0161ZM19.7581 33.871H15.2419V25.9677H19.7581V33.871Z" fill="#B8F1DD"/>
<path d="M17.5 23.7097C19.0564 23.7097 20.3226 22.4435 20.3226 20.8871C20.3226 19.3307 19.0564 18.0645 17.5 18.0645C15.9436 18.0645 14.6774 19.3307 14.6774 20.8871C14.6774 22.4435 15.9436 23.7097 17.5 23.7097ZM15.9103 21.4516H16.9355V22.4768C16.4573 22.3063 16.0808 21.9297 15.9103 21.4516ZM18.0645 22.4768V21.4516H19.0897C18.9192 21.9297 18.5426 22.3063 18.0645 22.4768ZM19.0897 20.3226H18.0645V19.2974C18.5426 19.4679 18.9192 19.8444 19.0897 20.3226ZM16.9355 19.2974V20.3226H15.9103C16.0808 19.8444 16.4573 19.4679 16.9355 19.2974Z" fill="#B8F1DD"/>
<path d="M9.59678 21.4516H8.46774V28.7903H9.59678V21.4516Z" fill="#B8F1DD"/>
<path d="M26.5323 21.4516H25.4032V28.7903H26.5323V21.4516Z" fill="#B8F1DD"/>
<path d="M17.5 29.3548H16.371V30.4839H17.5V29.3548Z" fill="#B8F1DD"/>
<path d="M24.8387 9.59677H21.4516V12.9839H24.8387V9.59677ZM23.7097 11.8548H22.5806V10.7258H23.7097V11.8548Z" fill="#B8F1DD"/>
<path d="M10.1613 12.9839H13.5484V9.59677H10.1613V12.9839ZM11.2903 10.7258H12.4193V11.8548H11.2903V10.7258Z" fill="#B8F1DD"/>
<path d="M35 33.871H33.871V35H35V33.871Z" fill="#B8F1DD"/>
<path d="M1.12903 33.871H0V35H1.12903V33.871Z" fill="#B8F1DD"/>
<path d="M11.2903 32.7419H6.77421C5.8405 32.7419 5.08066 31.9821 5.08066 31.0484C5.08066 30.2507 5.63501 29.5795 6.37905 29.4011C6.69009 28.7011 7.39405 28.2258 8.1855 28.2258C8.48074 28.2258 8.76808 28.2918 9.03227 28.42C9.29646 28.2918 9.5838 28.2258 9.87905 28.2258C10.6705 28.2258 11.3744 28.7011 11.6855 29.4011C12.4295 29.5795 12.9839 30.2507 12.9839 31.0484C12.9839 31.9821 12.224 32.7419 11.2903 32.7419Z" fill="#B8F1DD"/>
<path d="M28.2258 32.7419H23.7097C22.776 32.7419 22.0161 31.9821 22.0161 31.0484C22.0161 30.2507 22.5705 29.5795 23.3145 29.4011C23.6256 28.7011 24.3295 28.2258 25.121 28.2258C25.4162 28.2258 25.7036 28.2918 25.9678 28.42C26.232 28.2918 26.5193 28.2258 26.8145 28.2258C27.606 28.2258 28.3099 28.7011 28.621 29.4011C29.365 29.5795 29.9194 30.2507 29.9194 31.0484C29.9194 31.9821 29.1595 32.7419 28.2258 32.7419Z" fill="#B8F1DD"/>
<path d="M27.0883 22.5806H26.9116C26.5458 22.5806 26.1828 22.4593 25.8898 22.2397L17.5 15.9476L9.10958 22.2397C8.81716 22.4593 8.45474 22.5806 8.08837 22.5806H7.91167C6.97345 22.5806 6.20966 21.8168 6.20966 20.8786C6.20966 20.357 6.45578 19.8552 6.86675 19.5351L16.1434 12.3206C16.9151 11.7199 18.0848 11.7199 18.8571 12.3206L28.1343 19.5356C28.5442 19.8552 28.7903 20.3576 28.7903 20.8786C28.7903 21.8168 28.0265 22.5806 27.0883 22.5806Z" fill="#B8F1DD"/>
<path d="M9.161 42.801H5.807V47H4.832V37.9H5.807V41.904H9.161V37.9H10.136V47H9.161V42.801ZM11.4507 43.75C11.4507 42.58 11.6501 41.722 12.0487 41.176C12.4561 40.6213 13.0324 40.344 13.7777 40.344C14.5751 40.344 15.1601 40.6257 15.5327 41.189C15.9141 41.7523 16.1047 42.606 16.1047 43.75C16.1047 44.9287 15.9011 45.791 15.4937 46.337C15.0864 46.883 14.5144 47.156 13.7777 47.156C12.9804 47.156 12.3911 46.8743 12.0097 46.311C11.6371 45.7477 11.4507 44.894 11.4507 43.75ZM12.4257 43.75C12.4257 44.1313 12.4474 44.478 12.4907 44.79C12.5427 45.102 12.6207 45.3707 12.7247 45.596C12.8374 45.8213 12.9804 45.999 13.1537 46.129C13.3271 46.2503 13.5351 46.311 13.7777 46.311C14.2284 46.311 14.5664 46.1117 14.7917 45.713C15.0171 45.3057 15.1297 44.6513 15.1297 43.75C15.1297 43.3773 15.1037 43.035 15.0517 42.723C15.0084 42.4023 14.9304 42.1293 14.8177 41.904C14.7137 41.6787 14.5751 41.5053 14.4017 41.384C14.2284 41.254 14.0204 41.189 13.7777 41.189C13.3357 41.189 12.9977 41.3927 12.7637 41.8C12.5384 42.2073 12.4257 42.8573 12.4257 43.75ZM20.3901 47V43.139C20.3901 42.7923 20.3771 42.4977 20.3511 42.255C20.3337 42.0037 20.2904 41.8 20.2211 41.644C20.1517 41.488 20.0564 41.3753 19.9351 41.306C19.8137 41.228 19.6534 41.189 19.4541 41.189C19.1594 41.189 18.9081 41.306 18.7001 41.54C18.5007 41.7653 18.3621 42.0253 18.2841 42.32V47H17.3481V40.5H18.0111L18.1801 41.189H18.2191C18.4011 40.9377 18.6177 40.734 18.8691 40.578C19.1204 40.422 19.4411 40.344 19.8311 40.344C20.1604 40.344 20.4291 40.4177 20.6371 40.565C20.8537 40.7037 21.0227 40.955 21.1441 41.319C21.3001 41.0157 21.5211 40.7773 21.8071 40.604C22.1017 40.4307 22.4224 40.344 22.7691 40.344C23.0551 40.344 23.2977 40.383 23.4971 40.461C23.7051 40.5303 23.8697 40.6603 23.9911 40.851C24.1211 41.033 24.2164 41.28 24.2771 41.592C24.3377 41.8953 24.3681 42.281 24.3681 42.749V47H23.4321V42.866C23.4321 42.3027 23.3757 41.8823 23.2631 41.605C23.1591 41.3277 22.9121 41.189 22.5221 41.189C22.1927 41.189 21.9284 41.293 21.7291 41.501C21.5384 41.7003 21.4041 41.9733 21.3261 42.32V47H20.3901ZM29.7028 46.558C29.4948 46.7487 29.2305 46.896 28.9098 47C28.5892 47.104 28.2512 47.156 27.8958 47.156C27.4885 47.156 27.1332 47.078 26.8298 46.922C26.5352 46.7573 26.2882 46.5277 26.0888 46.233C25.8982 45.9297 25.7552 45.57 25.6598 45.154C25.5732 44.738 25.5298 44.27 25.5298 43.75C25.5298 42.6407 25.7335 41.7957 26.1408 41.215C26.5482 40.6343 27.1245 40.344 27.8698 40.344C28.1125 40.344 28.3508 40.3743 28.5848 40.435C28.8275 40.4957 29.0442 40.617 29.2348 40.799C29.4255 40.981 29.5772 41.2367 29.6898 41.566C29.8112 41.8953 29.8718 42.3243 29.8718 42.853C29.8718 43.0003 29.8632 43.1607 29.8458 43.334C29.8372 43.4987 29.8242 43.672 29.8068 43.854H26.5048C26.5048 44.2267 26.5352 44.5647 26.5958 44.868C26.6565 45.1713 26.7518 45.4313 26.8818 45.648C27.0118 45.856 27.1765 46.0207 27.3758 46.142C27.5838 46.2547 27.8395 46.311 28.1428 46.311C28.3768 46.311 28.6065 46.2677 28.8318 46.181C29.0658 46.0943 29.2435 45.9903 29.3648 45.869L29.7028 46.558ZM28.9748 43.074C28.9922 42.424 28.9012 41.9473 28.7018 41.644C28.5025 41.3407 28.2295 41.189 27.8828 41.189C27.4842 41.189 27.1678 41.3407 26.9338 41.644C26.6998 41.9473 26.5612 42.424 26.5178 43.074H28.9748Z" fill="#B8F1DD"/>
</svg>
