<svg width="50" height="50" viewBox="0 0 50 50" fill="none" xmlns="http://www.w3.org/2000/svg">
<g clip-path="url(#clip0_1_209)">
<path d="M14.6086 19.3482H35.3915V23.7505H14.6086V19.3482Z" fill="#918291"/>
<path d="M46.9093 40.5752H3.09074C1.16877 40.5752 -0.2868 38.8375 0.0482582 36.9432L2.04396 25.6592C2.30519 24.182 3.58781 23.1055 5.08644 23.1055H44.9135C46.4122 23.1055 47.6947 24.1819 47.9561 25.6592L49.9519 36.9432C50.2869 38.8376 48.8313 40.5752 46.9093 40.5752Z" fill="#ACA6D6"/>
<path d="M49.9519 36.9433L47.9561 25.6592C47.6948 24.1821 46.4122 23.1056 44.9136 23.1056H44.5535C44.7419 23.4208 44.8769 23.7737 44.944 24.1532C45.0911 24.9698 45.2381 25.7865 45.3852 26.6031C46.5544 33.097 41.5635 39.067 34.9651 39.0674C23.4562 39.068 11.9472 39.0687 0.438187 39.0693C0.973441 39.963 1.94991 40.5753 3.09073 40.5753H46.9094C48.8313 40.5752 50.2869 38.8376 49.9519 36.9433Z" fill="#978ECB"/>
<path d="M3.25029 36.9912L5.09707 26.5496C5.13096 26.3578 5.29775 26.218 5.49258 26.218L44.5075 26.2181C44.7023 26.2181 44.869 26.3579 44.903 26.5497L46.7498 36.9912C46.7933 37.2372 46.6041 37.4628 46.3544 37.4628H3.6457C3.396 37.4628 3.20674 37.2372 3.25029 36.9912Z" fill="#FAF7F7"/>
<path d="M45.4757 29.7881C45.0809 32.9842 43.2363 35.7949 40.5747 37.4628H46.3543C46.6041 37.4628 46.7933 37.2372 46.7497 36.9912L45.4757 29.7881Z" fill="#F3EAE6"/>
<path d="M21.2343 35.2864C21.048 35.2864 20.8597 35.2639 20.6728 35.2178C19.6737 34.9717 18.976 34.0656 18.976 33.0144V30.6273C18.976 29.5759 19.6737 28.6698 20.6728 28.4239C21.3641 28.2533 22.0763 28.4035 22.627 28.8352C23.1779 29.2669 23.494 29.9158 23.494 30.6155V33.0264C23.494 33.7261 23.1779 34.375 22.627 34.8068C22.2252 35.1216 21.7372 35.2864 21.2343 35.2864ZM21.2351 29.861C21.1726 29.861 21.1051 29.8685 21.0329 29.8862C20.7137 29.9649 20.482 30.2765 20.482 30.6273V33.0144C20.482 33.3651 20.7137 33.6769 21.0329 33.7555C21.3597 33.8358 21.59 33.706 21.6982 33.6212C21.8824 33.4769 21.988 33.26 21.988 33.0263V30.6154C21.988 30.3818 21.8823 30.1649 21.6982 30.0205C21.6139 29.9545 21.4556 29.861 21.2351 29.861Z" fill="#918291"/>
<path d="M28.7644 35.2865C28.578 35.2865 28.3897 35.2639 28.2028 35.2178C27.2038 34.9719 26.5061 34.0658 26.5061 33.0144V30.6273C26.5061 29.5759 27.2038 28.6699 28.2028 28.424C28.8941 28.2535 29.6064 28.4035 30.1571 28.8352C30.708 29.2669 31.024 29.9159 31.024 30.6156V33.0264C31.024 33.7261 30.708 34.375 30.1571 34.8068C29.7553 35.1216 29.2673 35.2865 28.7644 35.2865ZM28.765 29.861C28.7025 29.861 28.6351 29.8685 28.5628 29.8863C28.2436 29.9649 28.0119 30.2765 28.0119 30.6273V33.0144C28.0119 33.3652 28.2436 33.6769 28.5628 33.7555C28.8897 33.8358 29.12 33.706 29.2281 33.6212C29.4124 33.4769 29.518 33.26 29.518 33.0263V30.6155C29.518 30.3818 29.4123 30.1649 29.2281 30.0205C29.1439 29.9545 28.9855 29.861 28.765 29.861Z" fill="#918291"/>
<path d="M25.4759 34.9822C25.7699 34.6882 25.7699 34.2115 25.4759 33.9174C25.1818 33.6234 24.7051 33.6234 24.4111 33.9174C24.1171 34.2115 24.1171 34.6882 24.4111 34.9822C24.7051 35.2763 25.1818 35.2763 25.4759 34.9822Z" fill="#918291"/>
<path d="M14.6086 19.9932H35.3915V23.1056H14.6086V19.9932Z" fill="#918291"/>
<path d="M32.3795 19.9932H35.3915V23.1056H32.3795V19.9932Z" fill="#7A6D79"/>
<path d="M38.9778 19.9932H11.0222C10.4522 19.9932 9.99014 19.5312 9.99014 18.9611V15.8095H40.0099V18.9611C40.0099 19.5311 39.5479 19.9932 38.9778 19.9932Z" fill="#ACA6D6"/>
<path d="M36.9979 16.8807V18.961C36.9979 19.5311 36.5358 19.9931 35.9658 19.9931H38.9778C39.5479 19.9931 40.0099 19.5311 40.0099 18.961V16.8807H36.9979Z" fill="#978ECB"/>
<path d="M48.3913 9.02939L48.308 9.42294L47.2679 14.3646C46.9576 15.8325 45.6685 16.8807 44.1755 16.8807H5.82451C4.33154 16.8807 3.04238 15.8325 2.73213 14.3646L1.60771 9.09365L48.3913 9.02939Z" fill="#F3EAE6"/>
<path d="M48.308 9.42294L47.2679 14.3646C46.9576 15.8325 45.6684 16.8807 44.1755 16.8807H41.1635C42.6564 16.8807 43.9456 15.8325 44.2558 14.3646L45.3039 9.42294H48.308Z" fill="#E1D3CE"/>
<path d="M48.3651 6.21191H1.63486C0.759759 6.21191 0.0503845 6.93066 0.0503845 7.81738C0.0503845 8.7041 0.759759 9.42285 1.63486 9.42285H48.3651C49.2401 9.42285 49.9495 8.704 49.9495 7.81738C49.9495 6.93076 49.2401 6.21191 48.3651 6.21191Z" fill="#ACA6D6"/>
<path d="M48.3651 6.21204H45.3531C46.2282 6.21204 46.9375 6.93079 46.9375 7.81751C46.9375 8.70422 46.2281 9.42297 45.3531 9.42297H48.3651C49.2401 9.42297 49.9495 8.70422 49.9495 7.81751C49.9495 6.93079 49.2401 6.21204 48.3651 6.21204Z" fill="#978ECB"/>
<path d="M11.6676 43.7881H5.90312C5.33242 43.7881 4.86972 43.3254 4.86972 42.7547V40.5752H12.701V42.7546C12.701 43.3254 12.2383 43.7881 11.6676 43.7881Z" fill="#918291"/>
<path d="M9.68896 40.5752V42.7546C9.68896 43.3253 9.22627 43.788 8.65556 43.788H11.6676C12.2383 43.788 12.701 43.3253 12.701 42.7546V40.5752H9.68896Z" fill="#7A6D79"/>
<path d="M44.0969 43.7881H38.3324C37.7617 43.7881 37.299 43.3254 37.299 42.7547V40.5752H45.1303V42.7546C45.1303 43.3254 44.6677 43.7881 44.0969 43.7881Z" fill="#918291"/>
<path d="M42.1183 40.5752V42.7546C42.1183 43.3253 41.6556 43.788 41.0849 43.788H44.0969C44.6676 43.788 45.1303 43.3253 45.1303 42.7546V40.5752H42.1183Z" fill="#7A6D79"/>
</g>
<defs>
<clipPath id="clip0_1_209">
<rect width="50" height="50" fill="white"/>
</clipPath>
</defs>
</svg>
