<svg width="38" height="54" viewBox="0 0 38 54" fill="none" xmlns="http://www.w3.org/2000/svg">
<path d="M33.6 5.08065H23.1V10.7258H33.6V5.08065Z" fill="#B8F1DD"/>
<path d="M17.5 27.0968C12.4824 27.0968 8.40002 23.8045 8.40002 19.7581C8.40002 15.7116 12.4824 12.4194 17.5 12.4194C22.5176 12.4194 26.6 15.7116 26.6 19.7581C26.6 23.8045 22.5176 27.0968 17.5 27.0968Z" fill="#B8F1DD"/>
<path d="M34.3 30.9569V5.08065L32.7467 0H2.2533L0.7 5.01121V30.9569L0 32.6505V35H35V32.6505L34.3 30.9569ZM2.1 28.2258V11.2903H32.9V28.2258H30.1V29.3548H32.9V30.4839H2.1V29.3548H28.7V28.2258H2.1ZM9.8 5.64516V10.1613H2.1V5.64516H9.8ZM32.9 10.1613H11.2V5.64516H32.9V10.1613ZM31.6533 1.12903L32.7033 4.51613H2.2967L3.3467 1.12903H31.6533ZM33.6 33.871H1.4V32.8334L1.9047 31.6129H33.096L33.6 32.8334V33.871Z" fill="#B8F1DD"/>
<path d="M17.5 14.6774C14.0266 14.6774 11.2 16.9564 11.2 19.7581C11.2 22.5598 14.0266 24.8387 17.5 24.8387C19.6007 24.8387 21.5579 23.9773 22.7227 22.5806H26.6V21.4516H23.1V18.0645H26.6V16.9355H22.7227C21.5579 15.5389 19.6007 14.6774 17.5 14.6774ZM17.5 23.7097C14.798 23.7097 12.6 21.9365 12.6 19.7581C12.6 17.5796 14.798 15.8065 17.5 15.8065C19.2171 15.8065 20.8166 16.5431 21.7 17.7292V21.7875C20.8166 22.973 19.2171 23.7097 17.5 23.7097Z" fill="#B8F1DD"/>
<path d="M14 8.46774H15.5288C15.8186 9.12315 16.5886 9.59678 17.5 9.59678C18.4114 9.59678 19.1814 9.12315 19.4712 8.46774H21V7.33871H19.4712C19.1814 6.68331 18.4114 6.20968 17.5 6.20968C16.5886 6.20968 15.8186 6.68331 15.5288 7.33871H14V8.46774ZM17.5 7.33871C17.8857 7.33871 18.2 7.59161 18.2 7.90323C18.2 8.21484 17.8857 8.46774 17.5 8.46774C17.1143 8.46774 16.8 8.21484 16.8 7.90323C16.8 7.59161 17.1143 7.33871 17.5 7.33871Z" fill="#B8F1DD"/>
<path d="M25.9 7.33871H24.5V8.46774H25.9V7.33871Z" fill="#B8F1DD"/>
<path d="M28.7 7.33871H27.3V8.46774H28.7V7.33871Z" fill="#B8F1DD"/>
<path d="M31.5 7.33871H30.1V8.46774H31.5V7.33871Z" fill="#B8F1DD"/>
<path d="M13.3 2.25806H4.90002V3.3871H13.3V2.25806Z" fill="#B8F1DD"/>
<path d="M16.1 2.25806H14.7V3.3871H16.1V2.25806Z" fill="#B8F1DD"/>
<path d="M8.4 7.33871H3.5V8.46774H8.4V7.33871Z" fill="#B8F1DD"/>
<path d="M0.832 40.991C1.10933 40.913 1.404 40.861 1.716 40.835C2.028 40.809 2.33567 40.796 2.639 40.796C2.98567 40.796 3.328 40.835 3.666 40.913C4.004 40.991 4.30733 41.134 4.576 41.342C4.85333 41.55 5.07433 41.836 5.239 42.2C5.41233 42.564 5.499 43.0277 5.499 43.591C5.499 44.137 5.41667 44.6007 5.252 44.982C5.096 45.3633 4.88367 45.6753 4.615 45.918C4.355 46.152 4.05167 46.3253 3.705 46.438C3.367 46.542 3.016 46.594 2.652 46.594C2.61733 46.594 2.561 46.594 2.483 46.594C2.405 46.594 2.32267 46.594 2.236 46.594C2.14933 46.5853 2.06267 46.5767 1.976 46.568C1.898 46.5593 1.84167 46.5507 1.807 46.542V50H0.832V40.991ZM2.691 41.693C2.51767 41.693 2.34867 41.7017 2.184 41.719C2.028 41.7277 1.90233 41.745 1.807 41.771V45.645C1.84167 45.6623 1.89367 45.6753 1.963 45.684C2.041 45.684 2.119 45.6883 2.197 45.697C2.275 45.697 2.34867 45.697 2.418 45.697C2.496 45.697 2.55233 45.697 2.587 45.697C2.82967 45.697 3.06367 45.6667 3.289 45.606C3.51433 45.5453 3.71367 45.437 3.887 45.281C4.06033 45.1163 4.199 44.8997 4.303 44.631C4.41567 44.3537 4.472 44.007 4.472 43.591C4.472 43.227 4.42 42.9237 4.316 42.681C4.22067 42.4383 4.09067 42.2433 3.926 42.096C3.77 41.9487 3.58367 41.8447 3.367 41.784C3.15033 41.7233 2.925 41.693 2.691 41.693ZM10.1384 49.558C9.93038 49.7487 9.66604 49.896 9.34538 50C9.02471 50.104 8.68671 50.156 8.33138 50.156C7.92404 50.156 7.56871 50.078 7.26538 49.922C6.97071 49.7573 6.72371 49.5277 6.52438 49.233C6.33371 48.9297 6.19071 48.57 6.09538 48.154C6.00871 47.738 5.96538 47.27 5.96538 46.75C5.96538 45.6407 6.16904 44.7957 6.57638 44.215C6.98371 43.6343 7.56004 43.344 8.30538 43.344C8.54804 43.344 8.78638 43.3743 9.02038 43.435C9.26304 43.4957 9.47971 43.617 9.67038 43.799C9.86104 43.981 10.0127 44.2367 10.1254 44.566C10.2467 44.8953 10.3074 45.3243 10.3074 45.853C10.3074 46.0003 10.2987 46.1607 10.2814 46.334C10.2727 46.4987 10.2597 46.672 10.2424 46.854H6.94038C6.94038 47.2267 6.97071 47.5647 7.03138 47.868C7.09204 48.1713 7.18738 48.4313 7.31738 48.648C7.44738 48.856 7.61204 49.0207 7.81138 49.142C8.01938 49.2547 8.27504 49.311 8.57838 49.311C8.81238 49.311 9.04204 49.2677 9.26738 49.181C9.50138 49.0943 9.67904 48.9903 9.80038 48.869L10.1384 49.558ZM9.41038 46.074C9.42771 45.424 9.33671 44.9473 9.13738 44.644C8.93804 44.3407 8.66504 44.189 8.31838 44.189C7.91971 44.189 7.60338 44.3407 7.36938 44.644C7.13538 44.9473 6.99671 45.424 6.95338 46.074H9.41038ZM11.5175 48.934C11.6908 49.038 11.8945 49.129 12.1285 49.207C12.3712 49.2763 12.6182 49.311 12.8695 49.311C13.1555 49.311 13.3982 49.2417 13.5975 49.103C13.7968 48.9557 13.8965 48.7217 13.8965 48.401C13.8965 48.1323 13.8358 47.9113 13.7145 47.738C13.5932 47.5647 13.4372 47.4087 13.2465 47.27C13.0645 47.1313 12.8652 47.0057 12.6485 46.893C12.4318 46.7717 12.2282 46.6287 12.0375 46.464C11.8555 46.2993 11.7038 46.1043 11.5825 45.879C11.4612 45.6537 11.4005 45.3677 11.4005 45.021C11.4005 44.4663 11.5478 44.0503 11.8425 43.773C12.1458 43.487 12.5705 43.344 13.1165 43.344C13.4718 43.344 13.7795 43.3787 14.0395 43.448C14.2995 43.5087 14.5248 43.5953 14.7155 43.708L14.4685 44.488C14.3038 44.4013 14.1132 44.332 13.8965 44.28C13.6798 44.2193 13.4588 44.189 13.2335 44.189C12.9215 44.189 12.6918 44.254 12.5445 44.384C12.4058 44.514 12.3365 44.7177 12.3365 44.995C12.3365 45.2117 12.3972 45.398 12.5185 45.554C12.6398 45.7013 12.7915 45.84 12.9735 45.97C13.1642 46.0913 13.3678 46.217 13.5845 46.347C13.8012 46.477 14.0005 46.633 14.1825 46.815C14.3732 46.9883 14.5292 47.2007 14.6505 47.452C14.7718 47.6947 14.8325 48.0023 14.8325 48.375C14.8325 48.6177 14.7935 48.8473 14.7155 49.064C14.6375 49.2807 14.5162 49.4713 14.3515 49.636C14.1955 49.792 13.9962 49.9177 13.7535 50.013C13.5195 50.1083 13.2422 50.156 12.9215 50.156C12.5402 50.156 12.2108 50.117 11.9335 50.039C11.6562 49.9697 11.4222 49.8743 11.2315 49.753L11.5175 48.934ZM15.9491 43.89C16.2004 43.734 16.5037 43.6127 16.8591 43.526C17.2231 43.4393 17.6044 43.396 18.0031 43.396C18.3671 43.396 18.6574 43.4523 18.8741 43.565C19.0994 43.669 19.2727 43.8163 19.3941 44.007C19.5241 44.189 19.6064 44.4013 19.6411 44.644C19.6844 44.878 19.7061 45.125 19.7061 45.385C19.7061 45.905 19.6931 46.412 19.6671 46.906C19.6497 47.4 19.6411 47.868 19.6411 48.31C19.6411 48.6393 19.6497 48.947 19.6671 49.233C19.6931 49.5103 19.7364 49.7747 19.7971 50.026H19.0821L18.8611 49.259H18.8091C18.6791 49.4843 18.4884 49.6793 18.2371 49.844C17.9857 50.0087 17.6477 50.091 17.2231 50.091C16.7551 50.091 16.3694 49.9307 16.0661 49.61C15.7714 49.2807 15.6241 48.83 15.6241 48.258C15.6241 47.8853 15.6847 47.5733 15.8061 47.322C15.9361 47.0707 16.1137 46.867 16.3391 46.711C16.5731 46.555 16.8461 46.4467 17.1581 46.386C17.4787 46.3167 17.8341 46.282 18.2241 46.282C18.3107 46.282 18.3974 46.282 18.4841 46.282C18.5707 46.282 18.6617 46.2863 18.7571 46.295C18.7831 46.0263 18.7961 45.788 18.7961 45.58C18.7961 45.086 18.7224 44.7393 18.5751 44.54C18.4277 44.3407 18.1591 44.241 17.7691 44.241C17.5264 44.241 17.2621 44.28 16.9761 44.358C16.6901 44.4273 16.4517 44.5183 16.2611 44.631L15.9491 43.89ZM18.7701 47.036C18.6834 47.0273 18.5967 47.023 18.5101 47.023C18.4234 47.0143 18.3367 47.01 18.2501 47.01C18.0421 47.01 17.8384 47.0273 17.6391 47.062C17.4397 47.0967 17.2621 47.1573 17.1061 47.244C16.9501 47.3307 16.8244 47.4477 16.7291 47.595C16.6424 47.7423 16.5991 47.9287 16.5991 48.154C16.5991 48.5007 16.6814 48.7693 16.8461 48.96C17.0194 49.1507 17.2404 49.246 17.5091 49.246C17.8731 49.246 18.1547 49.1593 18.3541 48.986C18.5534 48.8127 18.6921 48.622 18.7701 48.414V47.036ZM24.5471 50V46.035C24.5471 45.385 24.4691 44.917 24.3131 44.631C24.1658 44.3363 23.8971 44.189 23.5071 44.189C23.1605 44.189 22.8745 44.293 22.6491 44.501C22.4238 44.709 22.2591 44.9647 22.1551 45.268V50H21.2191V43.5H21.8951L22.0641 44.189H22.1031C22.2678 43.955 22.4888 43.7557 22.7661 43.591C23.0521 43.4263 23.3901 43.344 23.7801 43.344C24.0575 43.344 24.3001 43.383 24.5081 43.461C24.7248 43.539 24.9025 43.6733 25.0411 43.864C25.1885 44.046 25.2968 44.293 25.3661 44.605C25.4441 44.917 25.4831 45.3113 25.4831 45.788V50H24.5471ZM26.867 43.89C27.1184 43.734 27.4217 43.6127 27.777 43.526C28.141 43.4393 28.5224 43.396 28.921 43.396C29.285 43.396 29.5754 43.4523 29.792 43.565C30.0174 43.669 30.1907 43.8163 30.312 44.007C30.442 44.189 30.5244 44.4013 30.559 44.644C30.6024 44.878 30.624 45.125 30.624 45.385C30.624 45.905 30.611 46.412 30.585 46.906C30.5677 47.4 30.559 47.868 30.559 48.31C30.559 48.6393 30.5677 48.947 30.585 49.233C30.611 49.5103 30.6544 49.7747 30.715 50.026H30L29.779 49.259H29.727C29.597 49.4843 29.4064 49.6793 29.155 49.844C28.9037 50.0087 28.5657 50.091 28.141 50.091C27.673 50.091 27.2874 49.9307 26.984 49.61C26.6894 49.2807 26.542 48.83 26.542 48.258C26.542 47.8853 26.6027 47.5733 26.724 47.322C26.854 47.0707 27.0317 46.867 27.257 46.711C27.491 46.555 27.764 46.4467 28.076 46.386C28.3967 46.3167 28.752 46.282 29.142 46.282C29.2287 46.282 29.3154 46.282 29.402 46.282C29.4887 46.282 29.5797 46.2863 29.675 46.295C29.701 46.0263 29.714 45.788 29.714 45.58C29.714 45.086 29.6404 44.7393 29.493 44.54C29.3457 44.3407 29.077 44.241 28.687 44.241C28.4444 44.241 28.18 44.28 27.894 44.358C27.608 44.4273 27.3697 44.5183 27.179 44.631L26.867 43.89ZM29.688 47.036C29.6014 47.0273 29.5147 47.023 29.428 47.023C29.3414 47.0143 29.2547 47.01 29.168 47.01C28.96 47.01 28.7564 47.0273 28.557 47.062C28.3577 47.0967 28.18 47.1573 28.024 47.244C27.868 47.3307 27.7424 47.4477 27.647 47.595C27.5604 47.7423 27.517 47.9287 27.517 48.154C27.517 48.5007 27.5994 48.7693 27.764 48.96C27.9374 49.1507 28.1584 49.246 28.427 49.246C28.791 49.246 29.0727 49.1593 29.272 48.986C29.4714 48.8127 29.61 48.622 29.688 48.414V47.036ZM35.4651 50V46.035C35.4651 45.385 35.3871 44.917 35.2311 44.631C35.0838 44.3363 34.8151 44.189 34.4251 44.189C34.0785 44.189 33.7925 44.293 33.5671 44.501C33.3418 44.709 33.1771 44.9647 33.0731 45.268V50H32.1371V43.5H32.8131L32.9821 44.189H33.0211C33.1858 43.955 33.4068 43.7557 33.6841 43.591C33.9701 43.4263 34.3081 43.344 34.6981 43.344C34.9755 43.344 35.2181 43.383 35.4261 43.461C35.6428 43.539 35.8205 43.6733 35.9591 43.864C36.1065 44.046 36.2148 44.293 36.2841 44.605C36.3621 44.917 36.4011 45.3113 36.4011 45.788V50H35.4651Z" fill="#B8F1DD"/>
</svg>
